<svg id="visual" viewBox="0 0 960 540" width="960" height="540" xmlns="http://www.w3.org/2000/svg" xmlns:xlink="http://www.w3.org/1999/xlink" version="1.1"><rect x="0" y="0" width="960" height="540" fill="#0b0c10"></rect><g transform="translate(1018.0724127540675 604.0077165552475)"><path d="M239 -306.4C339.6 -200.4 471.7 -153.4 437.1 -112.2C402.5 -71 201.2 -35.5 126.4 53.2C51.7 141.9 103.3 283.8 69.1 377.6C35 471.4 -84.9 517.1 -160.6 474.9C-236.2 432.8 -267.5 302.6 -344.4 189.2C-421.4 75.8 -544.1 -20.9 -557.6 -125.1C-571.1 -229.3 -475.5 -341 -364.4 -445.2C-253.3 -549.3 -126.6 -645.9 -28.7 -611.7C69.2 -577.5 138.4 -412.5 239 -306.4" fill="#00ADB5"></path></g></svg>