<svg id="visual" viewBox="0 0 960 540" width="960" height="540" xmlns="http://www.w3.org/2000/svg" xmlns:xlink="http://www.w3.org/1999/xlink" version="1.1"><rect x="0" y="0" width="960" height="540" fill="#0b0c10"></rect><g transform="translate(93.6252096652286 552.4337877629259)"><path d="M364.9 -396.1C413.2 -394.4 351.4 -222.7 340.9 -88.7C330.4 45.3 371.3 141.6 323.1 150.2C274.8 158.7 137.4 79.3 35.5 131C-66.5 182.6 -132.9 365.2 -143 371.1C-153.1 376.9 -106.9 205.9 -195.5 93.2C-284.2 -19.6 -507.7 -74.3 -558.5 -152.8C-609.4 -231.2 -487.6 -333.6 -365.7 -322.2C-243.8 -310.9 -121.9 -186 18.2 -207.7C158.3 -229.4 316.7 -397.7 364.9 -396.1" fill="#00ADB5"></path></g></svg>