<svg id="visual" viewBox="0 0 900 600" width="900" height="600" xmlns="http://www.w3.org/2000/svg" xmlns:xlink="http://www.w3.org/1999/xlink" version="1.1"><rect x="0" y="0" width="900" height="600" fill="#0b0c10"></rect><defs><linearGradient id="grad1_0" x1="33.3%" y1="100%" x2="100%" y2="0%"><stop offset="20%" stop-color="#0b0c10" stop-opacity="1"></stop><stop offset="80%" stop-color="#0b0c10" stop-opacity="1"></stop></linearGradient></defs><defs><linearGradient id="grad2_0" x1="0%" y1="100%" x2="66.7%" y2="0%"><stop offset="20%" stop-color="#0b0c10" stop-opacity="1"></stop><stop offset="80%" stop-color="#0b0c10" stop-opacity="1"></stop></linearGradient></defs><g transform="translate(900, 600)"><path d="M-254 0C-251.2 -45.1 -248.4 -90.3 -231.2 -133.5C-214 -176.7 -182.4 -218.1 -141.5 -245.1C-100.6 -272.1 -50.3 -284.8 0 -297.5L0 0Z" fill="#00b500"></path></g><g transform="translate(0, 0)"><path d="M263 0C267.5 49.8 271.9 99.7 253.7 146.5C235.6 193.3 194.8 237.2 148.7 257.6C102.7 278 51.3 275 0 272L0 0Z" fill="#00b500"></path></g></svg>