<svg id="visual" viewBox="0 0 900 600" width="900" height="600" xmlns="http://www.w3.org/2000/svg" xmlns:xlink="http://www.w3.org/1999/xlink" version="1.1"><rect x="0" y="0" width="900" height="600" fill="#0b0c10"></rect><defs><linearGradient id="grad1_0" x1="33.3%" y1="100%" x2="100%" y2="0%"><stop offset="20%" stop-color="#0b0c10" stop-opacity="1"></stop><stop offset="80%" stop-color="#0b0c10" stop-opacity="1"></stop></linearGradient></defs><defs><linearGradient id="grad2_0" x1="0%" y1="100%" x2="66.7%" y2="0%"><stop offset="20%" stop-color="#0b0c10" stop-opacity="1"></stop><stop offset="80%" stop-color="#0b0c10" stop-opacity="1"></stop></linearGradient></defs><g transform="translate(900, 600)"><path d="M-513.8 0C-504 -74.7 -494.2 -149.3 -446.2 -184.8C-398.2 -220.4 -312 -216.7 -270.8 -270.8C-229.7 -324.9 -233.6 -436.7 -195.9 -473C-158.3 -509.3 -79.2 -470.2 0 -431L0 0Z" fill="#00b500"></path></g><g transform="translate(0, 0)"><path d="M375 0C367.6 41.2 360.1 82.4 367.7 152.3C375.3 222.2 397.9 320.7 363.3 363.3C328.7 405.9 236.9 392.5 166.8 402.8C96.8 413.1 48.4 447.1 0 481L0 0Z" fill="#00b500"></path></g></svg>