<svg id="visual" viewBox="0 0 960 540" width="960" height="540" xmlns="http://www.w3.org/2000/svg" xmlns:xlink="http://www.w3.org/1999/xlink" version="1.1"><rect x="0" y="0" width="960" height="540" fill="#0b0c10"></rect><g transform="translate(-36.632011174128024 72.44703965264648)"><path d="M59.6 -225.1C90 -85.8 135.9 -95.4 148.2 -82.7C160.6 -70 139.3 -35 264.9 72.5C390.4 180 662.9 360 695.7 450.9C728.5 541.9 521.8 543.7 365.9 542.4C210 541.1 105 536.5 -18 567.7C-141 598.9 -282 665.8 -399.2 644.8C-516.4 623.8 -609.8 514.9 -624 392.8C-638.1 270.7 -573.1 135.3 -455.9 67.7C-338.7 0 -169.3 0 -149.3 -112C-129.3 -224 -258.7 -448 -258.7 -604.9C-258.7 -761.7 -129.3 -851.3 -57.3 -752C14.7 -652.7 29.3 -364.5 59.6 -225.1" fill="#800000"></path></g></svg>